<svg viewBox="0 0 30 31" fill="none" xmlns="http://www.w3.org/2000/svg">
    <g clip-path="url(#clip0_1321_20321)">
        <path
            d="M28.657 26.7726C29.509 25.5162 30.0072 23.8412 30.0072 21.6607C30.0072 15.5523 26.13 13.3935 21.3213 13.3213C21.5451 12.3755 21.6679 11.3141 21.6679 10.13C21.6607 2.58484 16.8014 0 10.8303 0C4.85921 0 0 2.58484 0 10.13C0 12.7798 0.599278 14.8087 1.63899 16.3393L0.592058 19.7617C0.476534 20.1372 0.830325 20.4838 1.20578 20.3682L5.05415 19.1625C6.72924 19.9206 8.70758 20.2527 10.8303 20.2527C11.3069 20.2527 11.7834 20.231 12.2455 20.2022C12.1949 20.6643 12.1588 21.148 12.1588 21.6607C12.1588 27.87 16.1588 30 21.0758 30C22.8231 30 24.4549 29.7256 25.8339 29.1047L29.0036 30.0939C29.3141 30.1877 29.6029 29.8989 29.509 29.5957L28.6498 26.7798L28.657 26.7726ZM12.4332 6.64982C12.4332 5.61733 13.2708 4.77978 14.3032 4.77978C15.3357 4.77978 16.1733 5.61733 16.1733 6.64982C16.1733 7.68231 15.3357 8.51986 14.3032 8.51986H12.7076C12.556 8.51986 12.426 8.39711 12.426 8.23827V6.6426L12.4332 6.64982ZM13.5018 16H5.48736H5.22744C5.15523 16 5.08303 15.9711 5.03249 15.9206C4.98195 15.87 4.95307 15.7978 4.95307 15.7256V7.45848C4.95307 5.68953 6.38989 4.25271 8.15884 4.25271H8.41877C8.5704 4.25271 8.70036 4.37545 8.70036 4.5343V12.2671H9.24188H16.4332C16.5848 12.2671 16.7148 12.3899 16.7148 12.5487V12.8087C16.7148 13.3069 16.5993 13.7762 16.3971 14.1949C15.8195 14.4549 15.278 14.7726 14.7942 15.1625C14.491 15.4079 14.2094 15.6823 13.9495 15.9783C13.8051 16 13.6606 16.0144 13.509 16.0144L13.5018 16ZM17.87 23.0253C17.87 23.1552 17.769 23.2563 17.639 23.2563H16.3249C15.4729 23.2563 14.787 22.5632 14.787 21.7184C14.787 20.8736 15.4801 20.1805 16.3249 20.1805C17.1697 20.1805 17.8628 20.8736 17.8628 21.7184V23.0325L17.87 23.0253ZM22.6209 23.0253C22.6209 23.1552 22.5199 23.2563 22.3899 23.2563H21.0758C20.2238 23.2563 19.5379 22.5632 19.5379 21.7184C19.5379 20.8736 20.231 20.1805 21.0758 20.1805C21.9206 20.1805 22.6137 20.8736 22.6137 21.7184V23.0325L22.6209 23.0253ZM27.3718 23.0253C27.3718 23.1552 27.2708 23.2563 27.1408 23.2563H25.8267C24.9747 23.2563 24.2888 22.5632 24.2888 21.7184C24.2888 20.8736 24.9819 20.1805 25.8267 20.1805C26.6715 20.1805 27.3646 20.8736 27.3646 21.7184V23.0325L27.3718 23.0253Z" />
    </g>
    <defs>
    </defs>
</svg>